<svg xmlns="http://www.w3.org/2000/svg" viewBox="0 0 512 512" width="512" height="512">
  <rect width="512" height="512" rx="96" fill="#3f6212"/>
  <text x="256" y="222" font-family="Arial, Helvetica, sans-serif" font-weight="900" font-size="220" fill="#ecfccb" text-anchor="middle" dominant-baseline="middle" letter-spacing="-4">R</text>
  <g transform="translate(210.0 378.0) scale(3.833)" fill="none" stroke="#ecfccb" stroke-width="2" stroke-linecap="round" stroke-linejoin="round"><path d="M14 9.536V7a4 4 0 0 1 4-4h1.5a.5.5 0 0 1 .5.5V5a4 4 0 0 1-4 4 4 4 0 0 0-4 4c0 2 1 3 1 5a5 5 0 0 1-1 3" />
  <path d="M4 9a5 5 0 0 1 8 4 5 5 0 0 1-8-4" />
  <path d="M5 21h14" /></g>
</svg>