<svg xmlns="http://www.w3.org/2000/svg" viewBox="0 0 512 512" width="512" height="512">
  <rect width="512" height="512" rx="96" fill="#14532d"/>
  <g transform="translate(131.0 85.0) scale(10.417)" fill="none" stroke="#86efac" stroke-width="2" stroke-linecap="round" stroke-linejoin="round"><path d="M10 10v.2A3 3 0 0 1 8.9 16H5a3 3 0 0 1-1-5.8V10a3 3 0 0 1 6 0Z" />
  <path d="M7 16v6" />
  <path d="M13 19v3" />
  <path d="M12 19h8.3a1 1 0 0 0 .7-1.7L18 14h.3a1 1 0 0 0 .7-1.7L16 9h.2a1 1 0 0 0 .8-1.7L13 3l-1.4 1.5" /></g>
  <text x="256" y="400" font-family="Arial, Helvetica, sans-serif" font-weight="800" font-size="66" fill="#86efac" text-anchor="middle" dominant-baseline="middle" letter-spacing="2">THISTLE</text>
</svg>