<svg xmlns="http://www.w3.org/2000/svg" viewBox="0 0 512 512" width="512" height="512">
  <rect width="512" height="512" rx="96" fill="#334155"/>
  <text x="256" y="222" font-family="Arial, Helvetica, sans-serif" font-weight="900" font-size="168" fill="#a3e635" text-anchor="middle" dominant-baseline="middle" letter-spacing="-4">SB</text>
  <g transform="translate(210.0 378.0) scale(3.833)" fill="none" stroke="#a3e635" stroke-width="2" stroke-linecap="round" stroke-linejoin="round"><path d="M21.56 4.56a1.5 1.5 0 0 1 0 2.122l-.47.47a3 3 0 0 1-4.212-.03 3 3 0 0 1 0-4.243l.44-.44a1.5 1.5 0 0 1 2.121 0z" />
  <path d="M3 22a1 1 0 0 1-1-1v-3.586a1 1 0 0 1 .293-.707l3.355-3.355a1.205 1.205 0 0 1 1.704 0l3.296 3.296a1.205 1.205 0 0 1 0 1.704l-3.355 3.355a1 1 0 0 1-.707.293z" />
  <path d="m9 15 7.879-7.878" /></g>
</svg>