<svg xmlns="http://www.w3.org/2000/svg" viewBox="0 0 512 512" width="512" height="512">
  <rect width="512" height="512" rx="96" fill="#e11d48"/>
  <text x="256" y="222" font-family="Arial, Helvetica, sans-serif" font-weight="900" font-size="168" fill="#ffffff" text-anchor="middle" dominant-baseline="middle" letter-spacing="-4">PL</text>
  <g transform="translate(210.0 378.0) scale(3.833)" fill="none" stroke="#ffffff" stroke-width="2" stroke-linecap="round" stroke-linejoin="round"><path d="M2 9.5a5.5 5.5 0 0 1 9.591-3.676.56.56 0 0 0 .818 0A5.49 5.49 0 0 1 22 9.5c0 2.29-1.5 4-3 5.5l-5.492 5.313a2 2 0 0 1-3 .019L5 15c-1.5-1.5-3-3.2-3-5.5" />
  <path d="M3.22 13H9.5l.5-1 2 4.5 2-7 1.5 3.5h5.27" /></g>
</svg>